<svg width="700" height="760" viewBox="0 0 700 760" fill="none" xmlns="http://www.w3.org/2000/svg">
  <rect width="700" height="760" fill="#E8E4DE"/>
  <path d="M0 0H178L0 178V0Z" fill="#AEB4B5"/>
  <path d="M0 760V298L462 760H0Z" fill="#C6CBCB"/>
  <path d="M198 760C208 609 258 432 334 312C379 240 435 194 498 190C550 186 595 226 611 285C635 372 586 542 547 760H198Z" fill="#D8DBDE"/>
  <path d="M312 373C341 337 377 320 412 322C454 325 486 359 487 401C488 445 455 484 408 490C365 495 322 474 304 437C294 416 297 392 312 373Z" fill="#EFC8AF"/>
  <path d="M310 338C327 291 366 260 409 254C455 248 498 273 520 316C483 305 441 307 403 319C371 329 344 344 312 360C303 353 301 347 310 338Z" fill="#A87859"/>
  <path d="M253 760C260 591 302 466 357 387C379 356 404 332 437 315L465 362C441 454 402 592 383 760H253Z" fill="#A0A5AA"/>
</svg>
